
nColumns=19
nRows=92
DataType=double
version=3
OpenSimVersion=4.4-2022-10-11-798caa840
endheader
time	ground_force_calcn_r_vx	ground_force_calcn_r_vy	ground_force_calcn_r_vz	ground_force_calcn_r_px	ground_force_calcn_r_py	ground_force_calcn_r_pz	ground_force_calcn_r_mx	ground_force_calcn_r_my	ground_force_calcn_r_mz	ground_force_calcn_l_vx	ground_force_calcn_l_vy	ground_force_calcn_l_vz	ground_force_calcn_l_px	ground_force_calcn_l_py	ground_force_calcn_l_pz	ground_force_calcn_l_mx	ground_force_calcn_l_my	ground_force_calcn_l_mz
1.38	-98.85899999999999	157.33	-19.2776	-0.0850972	0	-0.423884	-0.191091	0.304114	-0.0372629	0	0	0	0	0	0	0	0	0
1.39	-359.072	623.335	-72.0793	-0.0927052	0	-0.42855	-1.16052	2.01462	-0.23296	0	0	0	0	0	0	0	0	0
1.4	-317.292	767.987	-96.7144	-0.101234	0	-0.43277	-1.88952	4.57348	-0.575949	-198.595	305.664	16.9961	-0.010291	0	-0.758313	0.231907	-0.356936	-0.0198471
1.41	-171.279	709.925	-89.7786	-0.112844	0	-0.437513	-0.8841909999999999	3.66484	-0.463464	-318.666	607.14	42.143	-0.0201149	0	-0.758047	0.221102	-0.421256	-0.0292403
1.42	-172.715	796.288	-70.4746	-0.135157	0	-0.445843	0.234347	-1.08044	0.09562279999999999	-160.981	619.418	48.9865	-0.0327471	0	-0.75442	0.0280145	-0.107793	-0.008524790000000001
1.43	-141.892	1036.05	-33.6847	-0.171553	0	-0.457001	0.837715	-6.11672	0.198871	-105.557	653.732	31.6447	-0.0514124	0	-0.749946	-0.636753	3.94353	0.190892
1.44	-119.644	1129.19	-33.6898	-0.184727	0	-0.460733	0.823735	-7.77436	0.23195	-81.5458	761.3150000000001	0.38749	-0.082006	0	-0.742359	-0.879794	8.213789999999999	0.00418061
1.45	-164.836	956.723	-63.5641	-0.168715	0	-0.456721	0.997725	-5.79089	0.384743	-82.16889999999999	850.402	5.46958	-0.1018	0	-0.739216	-0.891205	9.223470000000001	0.0593231
1.46	-180.434	797.179	-80.43040000000001	-0.145841	0	-0.451509	0.777643	-3.43572	0.346642	-130.649	794.713	37.8763	-0.09523280000000001	0	-0.741932	-1.27451	7.75262	0.369493
1.47	-169.424	713.026	-78.5823	-0.130846	0	-0.449029	0.62093	-2.6132	0.288	-151.178	705.0119999999999	51.9887	-0.0786936	0	-0.745046	-1.47408	6.87431	0.506922
1.48	-159.867	656.129	-61.9976	-0.121531	0	-0.448948	0.761267	-3.1244	0.295224	-142.69	644.523	59.2453	-0.0650485	0	-0.747413	-1.51286	6.83354	0.628147
1.49	-147.565	604.657	-44.2452	-0.114972	0	-0.449625	0.912886	-3.74062	0.273716	-146.603	609.501	68.45010000000001	-0.054295	0	-0.749474	-1.54554	6.42558	0.721625
1.5	-140.473	571.782	-32.8716	-0.110803	0	-0.450419	1.01186	-4.11868	0.236781	-155.862	589.396	72.7441	-0.0461454	0	-0.750668	-1.61748	6.11654	0.7549129999999999
1.51	-136.793	560.253	-27.4478	-0.109008	0	-0.450988	1.08579	-4.44698	0.217866	-153.713	578.641	70.7136	-0.0415754	0	-0.750996	-1.73468	6.53006	0.798015
1.52	-126.689	558.424	-24.8484	-0.109892	0	-0.451442	1.06858	-4.71013	0.209588	-140.084	572.16	66.04389999999999	-0.0401838	0	-0.750931	-1.81994	7.43335	0.858026
1.53	-105.984	563.909	-26.8763	-0.115371	0	-0.451894	0.8224129999999999	-4.3758	0.208554	-121.453	564.337	62.0507	-0.0401825	0	-0.7506930000000001	-1.7691	8.220219999999999	0.903841
1.54	-70.2783	584.841	-31.9485	-0.127585	0	-0.452798	0.403329	-3.35642	0.183354	-102.455	550.144	60.7393	-0.0404278	0	-0.750422	-1.57291	8.445959999999999	0.932486
1.55	-26.1178	623.292	-37.7999	-0.141528	0	-0.453619	0.0982311	-2.34424	0.142168	-86.48399999999999	526.857	61.764	-0.040259	0	-0.750267	-1.33949	8.16011	0.956618
1.56	8.03528	668.478	-46.3947	-0.149756	0	-0.453328	-0.0212606	-1.76873	0.122756	-75.0359	493.826	63.8465	-0.0394844	0	-0.750154	-1.174	7.72633	0.998932
1.57	17.1183	691.546	-54.1223	-0.150194	0	-0.452043	-0.0402593	-1.62639	0.127286	-70.79340000000001	458.199	66.7693	-0.0381643	0	-0.750143	-1.12424	7.27647	1.06033
1.58	6.4714	681.787	-55.4158	-0.145372	0	-0.450363	-0.018388	-1.93725	0.15746	-72.6842	424.95	69.0562	-0.0364806	0	-0.750059	-1.16321	6.80072	1.10515
1.59	-6.4192	657.0309999999999	-52.3622	-0.139239	0	-0.448681	0.024283	-2.48546	0.198079	-78.5599	400.134	70.0163	-0.0350575	0	-0.749694	-1.25544	6.39443	1.11891
1.6	-15.0199	638.343	-51.7891	-0.134102	0	-0.447079	0.0655087	-2.7841	0.225875	-85.64570000000001	395.241	68.9144	-0.0344167	0	-0.7486969999999999	-1.36832	6.31456	1.10101
1.61	-19.0977	635.048	-56.4987	-0.130337	0	-0.445536	0.0784859	-2.60987	0.232194	-88.2794	419.26	63.9316	-0.0352813	0	-0.747321	-1.47364	6.99867	1.06721
1.62	-19.5959	640.7329999999999	-63.1058	-0.127341	0	-0.444389	0.0680862	-2.22624	0.219262	-86.398	463.087	56.1648	-0.0367835	0	-0.745891	-1.53497	8.227309999999999	0.997837
1.63	-18.1793	647.26	-66.6463	-0.124885	0	-0.443853	0.0584491	-2.08104	0.214278	-81.61060000000001	509.309	48.6354	-0.0380772	0	-0.7443109999999999	-1.51045	9.426259999999999	0.900142
1.64	-15.705	651.6319999999999	-65.5183	-0.122901	0	-0.443872	0.0589428	-2.44565	0.245898	-75.69540000000001	552.301	43.0431	-0.0394726	0	-0.743028	-1.41682	10.3377	0.805656
1.65	-12.8632	653.96	-61.6147	-0.121206	0	-0.44437	0.0605388	-3.07776	0.28998	-68.53660000000001	590.639	40.5188	-0.0413197	0	-0.742052	-1.24153	10.6993	0.7339909999999999
1.66	-10.817	655.3150000000001	-58.2263	-0.119586	0	-0.444954	0.059451	-3.60165	0.320015	-61.7499	614.886	43.8053	-0.0419165	0	-0.741698	-1.00534	10.0109	0.71319
1.67	-9.441229999999999	655.777	-56.8847	-0.118039	0	-0.445372	0.0557655	-3.87341	0.335995	-60.718	621.302	49.6287	-0.0398696	0	-0.741924	-0.857273	8.77211	0.700702
1.68	-7.97375	654.5359999999999	-56.7738	-0.116514	0	-0.445653	0.0480585	-3.94495	0.34218	-64.5767	618.076	51.8459	-0.0365949	0	-0.741821	-0.821082	7.85874	0.659213
1.69	-6.69253	650.725	-56.6893	-0.114976	0	-0.44589	0.040774	-3.96452	0.345378	-68.58159999999999	611.5	49.6768	-0.0337768	0	-0.741329	-0.8311269999999999	7.41065	0.602024
1.7	-5.19662	644.093	-56.4273	-0.113467	0	-0.446172	0.032388	-4.01432	0.351684	-71.1129	603.814	46.2776	-0.0315413	0	-0.740833	-0.8375860000000001	7.11187	0.5450700000000001
1.71	-2.86318	635.46	-56.0732	-0.111993	0	-0.446441	0.0184734	-4.10002	0.361787	-72.33920000000001	597.143	44.2614	-0.0296454	0	-0.740555	-0.811087	6.69533	0.496271
1.72	-0.5455449999999999	625.579	-55.6861	-0.110608	0	-0.446728	0.00369081	-4.23227	0.376737	-71.6536	593.314	43.8653	-0.0281115	0	-0.740567	-0.743269	6.1545	0.455019
1.73	2.0213	616.103	-55.596	-0.10945	0	-0.446941	-0.014383	-4.38401	0.395605	-68.8699	592.782	44.8283	-0.0270846	0	-0.740949	-0.647919	5.57681	0.421739
1.74	4.9433	607.573	-55.9669	-0.108453	0	-0.447136	-0.0371007	-4.55998	0.420045	-64.2092	594.5069999999999	47.2551	-0.0263495	0	-0.741839	-0.523713	4.849	0.385429
1.75	7.02755	598.403	-56.9624	-0.107353	0	-0.447387	-0.0547032	-4.65803	0.443402	-58.2446	597.476	51.2234	-0.0258311	0	-0.743022	-0.385075	3.95012	0.338656
1.76	7.85815	588.217	-58.8854	-0.106025	0	-0.447417	-0.0614637	-4.60083	0.460581	-52.1035	600.978	56.0589	-0.025563	0	-0.7445040000000001	-0.259718	2.99567	0.279435
1.77	8.451980000000001	577.4690000000001	-61.1655	-0.104471	0	-0.447196	-0.0643068	-4.39366	0.465377	-46.5976	603.65	61.0153	-0.0252544	0	-0.746227	-0.16199	2.09851	0.212111
1.78	8.69553	567.2380000000001	-62.5173	-0.102766	0	-0.446943	-0.06344329999999999	-4.13861	0.456131	-41.8907	604.124	65.7842	-0.0247804	0	-0.747717	-0.0905142	1.30534	0.142141
1.79	8.128629999999999	558.5309999999999	-62.2585	-0.101025	0	-0.447001	-0.0578809	-3.97709	0.443319	-37.5821	602.366	69.9267	-0.0239211	0	-0.749059	-0.0399147	0.639753	0.0742669
1.8	6.66804	551.492	-60.8238	-0.0993353	0	-0.447071	-0.0470728	-3.89324	0.429383	-34.3549	598.5410000000001	73.2212	-0.0228662	0	-0.750254	-0.0105002	0.182939	0.0223794
1.81	4.14149	545.65	-59.7406	-0.0975688	0	-0.446923	-0.0279567	-3.68335	0.403272	-33.0706	592.472	75.48050000000001	-0.0215241	0	-0.751163	0.00679238	-0.121688	-0.0155029
1.82	0.129901	540.217	-60.0031	-0.0957057	0	-0.446548	-0.000783658	-3.25898	0.361983	-34.1313	584.499	76.2863	-0.0198345	0	-0.751792	0.0183802	-0.314762	-0.0410814
1.83	-4.84133	535.3339999999999	-61.1617	-0.0939108	0	-0.446022	0.0242311	-2.67937	0.306117	-36.5877	575.731	75.7214	-0.0181107	0	-0.752183	0.0236891	-0.372762	-0.0490265
1.84	-10.0362	530.623	-62.0264	-0.0921791	0	-0.44546	0.0391823	-2.0716	0.242157	-38.9571	566.745	73.7358	-0.0167833	0	-0.752372	0.0225855	-0.328572	-0.0427485
1.85	-15.1603	525.496	-62.1601	-0.09061379999999999	0	-0.444858	0.0439235	-1.52251	0.180095	-40.8115	557.614	70.20050000000001	-0.0155243	0	-0.752503	0.01904	-0.260147	-0.0327511
1.86	-21.0945	520.002	-61.7176	-0.0892058	0	-0.444047	0.0424829	-1.04725	0.124295	-42.6197	547.503	65.98309999999999	-0.0139931	0	-0.752429	0.0141538	-0.181823	-0.0219127
1.87	-27.6341	512.764	-60.7293	-0.087898	0	-0.443141	0.0350274	-0.64995	0.0769769	-45.7868	535.9450000000001	61.8707	-0.0125816	0	-0.7522489999999999	0.0118837	-0.139101	-0.0160581
1.88	-33.1718	501.576	-58.8173	-0.0867125	0	-0.441999	0.0223884	-0.338525	0.0396972	-49.9279	522.318	58.1398	-0.0111807	0	-0.752526	0.0143496	-0.150117	-0.0167097
1.89	-37.1994	482.471	-55.7484	-0.08533010000000001	0	-0.440588	0.00371101	-0.0481313	0.00556146	-53.422	503.857	54.1425	-0.00960159	0	-0.753194	0.0211066	-0.19907	-0.0213913
1.9	-38.9403	450.462	-51.2477	-0.0837758	0	-0.438616	-0.0197559	0.228536	-0.0259999	-55.1174	476.426	48.9631	-0.00785725	0	-0.754298	0.0304664	-0.263347	-0.0270646
1.91	-36.8328	399.658	-44.0252	-0.0817508	0	-0.436051	-0.0459698	0.498801	-0.0549464	-53.0415	432.896	41.396	-0.00597886	0	-0.755871	0.0389228	-0.317667	-0.0303771
1.92	-28.74	325.137	-31.9278	-0.0788214	0	-0.433501	-0.0501733	0.567613	-0.0557383	-44.1368	364.285	30.2832	-0.00316001	0	-0.757564	0.0404747	-0.33406	-0.0277705
1.93	-14.1819	224.888	-15.7539	-0.0748711	0	-0.432054	-0.0238388	0.378023	-0.0264812	-27.5291	267.187	14.8446	0.00106037	0	-0.758931	0.0145525	-0.141242	-0.00784721
1.94	0.846861	108.625	-1.30782	-0.06816850000000001	0	-0.434313	0.000456141	0.058508	-0.000704424	-9.634209999999999	150.513	-1.12126	0.00951024	0	-0.7576850000000001	-0.0147158	0.229902	-0.00171268
1.95	4.93514	21.4157	3.06351	-0.0395097	0	-0.463064	-0.06679789999999999	-0.289864	-0.041465	-1.46951	45.7263	-5.86325	0.0417385	0	-0.7443920000000001	-0.0151258	0.470667	-0.0603512
1.96	0	0	0	0	0	0	0	0	0	0	0	0	0	0	0	0	0	0
1.97	0	0	0	0	0	0	0	0	0	0	0	0	0	0	0	0	0	0
1.98	0	0	0	0	0	0	0	0	0	0	0	0	0	0	0	0	0	0
1.99	0	0	0	0	0	0	0	0	0	0	0	0	0	0	0	0	0	0
2	0	0	0	0	0	0	0	0	0	0	0	0	0	0	0	0	0	0
2.01	0	0	0	0	0	0	0	0	0	0	0	0	0	0	0	0	0	0
2.02	0	0	0	0	0	0	0	0	0	0	0	0	0	0	0	0	0	0
2.03	0	0	0	0	0	0	0	0	0	0	0	0	0	0	0	0	0	0
2.04	0	0	0	0	0	0	0	0	0	0	0	0	0	0	0	0	0	0
2.05	0	0	0	0	0	0	0	0	0	0	0	0	0	0	0	0	0	0
2.06	0	0	0	0	0	0	0	0	0	0	0	0	0	0	0	0	0	0
2.07	0	0	0	0	0	0	0	0	0	0	0	0	0	0	0	0	0	0
2.08	0	0	0	0	0	0	0	0	0	0	0	0	0	0	0	0	0	0
2.09	0	0	0	0	0	0	0	0	0	0	0	0	0	0	0	0	0	0
2.1	0	0	0	0	0	0	0	0	0	0	0	0	0	0	0	0	0	0
2.11	0	0	0	0	0	0	0	0	0	0	0	0	0	0	0	0	0	0
2.12	0	0	0	0	0	0	0	0	0	0	0	0	0	0	0	0	0	0
2.13	0	0	0	0	0	0	0	0	0	0	0	0	0	0	0	0	0	0
2.14	0	0	0	0	0	0	0	0	0	0	0	0	0	0	0	0	0	0
2.15	0	0	0	0	0	0	0	0	0	0	0	0	0	0	0	0	0	0
2.16	0	0	0	0	0	0	0	0	0	0	0	0	0	0	0	0	0	0
2.17	0	0	0	0	0	0	0	0	0	0	0	0	0	0	0	0	0	0
2.18	0	0	0	0	0	0	0	0	0	0	0	0	0	0	0	0	0	0
2.19	0	0	0	0	0	0	0	0	0	0	0	0	0	0	0	0	0	0
2.2	0	0	0	0	0	0	0	0	0	0	0	0	0	0	0	0	0	0
2.21	0	0	0	0	0	0	0	0	0	0	0	0	0	0	0	0	0	0
2.22	0	0	0	0	0	0	0	0	0	0	0	0	0	0	0	0	0	0
2.23	0	0	0	0	0	0	0	0	0	0	0	0	0	0	0	0	0	0
2.24	0	0	0	0	0	0	0	0	0	0	0	0	0	0	0	0	0	0
2.25	0	0	0	0	0	0	0	0	0	0	0	0	0	0	0	0	0	0
2.26	0	0	0	0	0	0	0	0	0	0	0	0	0	0	0	0	0	0
2.27	0	0	0	0	0	0	0	0	0	0	0	0	0	0	0	0	0	0
2.28	0	0	0	0	0	0	0	0	0	0	0	0	0	0	0	0	0	0
2.29	0	0	0	0	0	0	0	0	0	0	0	0	0	0	0	0	0	0
